<?xml version="1.0" encoding="UTF-8" standalone="no"?>
<!DOCTYPE svg PUBLIC "-//W3C//DTD SVG 1.1//EN"
 "http://www.w3.org/Graphics/SVG/1.1/DTD/svg11.dtd">
<!-- Generated by graphviz version 2.43.0 (0)
 -->
<!-- Title: %3 Pages: 1 -->
<svg width="2874pt" height="548pt"
 viewBox="0.00 0.00 2874.17 548.00" xmlns="http://www.w3.org/2000/svg" xmlns:xlink="http://www.w3.org/1999/xlink">
<g id="graph0" class="graph" transform="scale(1 1) rotate(0) translate(4 544)">
<title>%3</title>
<polygon fill="white" stroke="transparent" points="-4,4 -4,-544 2870.17,-544 2870.17,4 -4,4"/>
<!-- [root] aws_autoscaling_group.failure_analysis_ecs_asg (expand) -->
<g id="node1" class="node">
<title>[root] aws_autoscaling_group.failure_analysis_ecs_asg (expand)</title>
<polygon fill="none" stroke="black" points="2344.67,-396 2062.67,-396 2062.67,-360 2344.67,-360 2344.67,-396"/>
<text text-anchor="middle" x="2203.67" y="-374.3" font-family="Times,serif" font-size="14.00">aws_autoscaling_group.failure_analysis_ecs_asg</text>
</g>
<!-- [root] aws_launch_configuration.ecs_launch_config (expand) -->
<g id="node14" class="node">
<title>[root] aws_launch_configuration.ecs_launch_config (expand)</title>
<polygon fill="none" stroke="black" points="2336.17,-324 2071.17,-324 2071.17,-288 2336.17,-288 2336.17,-324"/>
<text text-anchor="middle" x="2203.67" y="-302.3" font-family="Times,serif" font-size="14.00">aws_launch_configuration.ecs_launch_config</text>
</g>
<!-- [root] aws_autoscaling_group.failure_analysis_ecs_asg (expand)&#45;&gt;[root] aws_launch_configuration.ecs_launch_config (expand) -->
<g id="edge1" class="edge">
<title>[root] aws_autoscaling_group.failure_analysis_ecs_asg (expand)&#45;&gt;[root] aws_launch_configuration.ecs_launch_config (expand)</title>
<path fill="none" stroke="black" d="M2203.67,-359.7C2203.67,-351.98 2203.67,-342.71 2203.67,-334.11"/>
<polygon fill="black" stroke="black" points="2207.17,-334.1 2203.67,-324.1 2200.17,-334.1 2207.17,-334.1"/>
</g>
<!-- [root] aws_subnet.pub_subnet (expand) -->
<g id="node18" class="node">
<title>[root] aws_subnet.pub_subnet (expand)</title>
<polygon fill="none" stroke="black" points="2546.67,-324 2400.67,-324 2400.67,-288 2546.67,-288 2546.67,-324"/>
<text text-anchor="middle" x="2473.67" y="-302.3" font-family="Times,serif" font-size="14.00">aws_subnet.pub_subnet</text>
</g>
<!-- [root] aws_autoscaling_group.failure_analysis_ecs_asg (expand)&#45;&gt;[root] aws_subnet.pub_subnet (expand) -->
<g id="edge2" class="edge">
<title>[root] aws_autoscaling_group.failure_analysis_ecs_asg (expand)&#45;&gt;[root] aws_subnet.pub_subnet (expand)</title>
<path fill="none" stroke="black" d="M2269.37,-359.97C2308.16,-349.91 2357.43,-337.14 2397.86,-326.65"/>
<polygon fill="black" stroke="black" points="2398.87,-330.01 2407.67,-324.11 2397.11,-323.23 2398.87,-330.01"/>
</g>
<!-- [root] aws_cloudwatch_log_group.jenkins_log_group (expand) -->
<g id="node2" class="node">
<title>[root] aws_cloudwatch_log_group.jenkins_log_group (expand)</title>
<polygon fill="none" stroke="black" points="1294.67,-396 1020.67,-396 1020.67,-360 1294.67,-360 1294.67,-396"/>
<text text-anchor="middle" x="1157.67" y="-374.3" font-family="Times,serif" font-size="14.00">aws_cloudwatch_log_group.jenkins_log_group</text>
</g>
<!-- [root] provider[&quot;registry.terraform.io/hashicorp/aws&quot;] -->
<g id="node24" class="node">
<title>[root] provider[&quot;registry.terraform.io/hashicorp/aws&quot;]</title>
<polygon fill="none" stroke="black" points="1307.67,-36 1055.13,-18 1307.67,0 1560.2,-18 1307.67,-36"/>
<text text-anchor="middle" x="1307.67" y="-14.3" font-family="Times,serif" font-size="14.00">provider[&quot;registry.terraform.io/hashicorp/aws&quot;]</text>
</g>
<!-- [root] aws_cloudwatch_log_group.jenkins_log_group (expand)&#45;&gt;[root] provider[&quot;registry.terraform.io/hashicorp/aws&quot;] -->
<g id="edge3" class="edge">
<title>[root] aws_cloudwatch_log_group.jenkins_log_group (expand)&#45;&gt;[root] provider[&quot;registry.terraform.io/hashicorp/aws&quot;]</title>
<path fill="none" stroke="black" d="M1170.81,-359.69C1189.01,-333.95 1219.67,-283.42 1219.67,-235 1219.67,-235 1219.67,-235 1219.67,-161 1219.67,-118.33 1232.28,-107.69 1255.67,-72 1262.84,-61.05 1272.51,-50.45 1281.56,-41.64"/>
<polygon fill="black" stroke="black" points="1284.06,-44.09 1288.95,-34.69 1279.27,-38.99 1284.06,-44.09"/>
</g>
<!-- [root] aws_ecs_cluster.ecs_cluster (expand) -->
<g id="node3" class="node">
<title>[root] aws_ecs_cluster.ecs_cluster (expand)</title>
<polygon fill="none" stroke="black" points="733.17,-108 566.17,-108 566.17,-72 733.17,-72 733.17,-108"/>
<text text-anchor="middle" x="649.67" y="-86.3" font-family="Times,serif" font-size="14.00">aws_ecs_cluster.ecs_cluster</text>
</g>
<!-- [root] aws_ecs_cluster.ecs_cluster (expand)&#45;&gt;[root] provider[&quot;registry.terraform.io/hashicorp/aws&quot;] -->
<g id="edge4" class="edge">
<title>[root] aws_ecs_cluster.ecs_cluster (expand)&#45;&gt;[root] provider[&quot;registry.terraform.io/hashicorp/aws&quot;]</title>
<path fill="none" stroke="black" d="M733.34,-80.1C852.59,-67.41 1071.41,-44.13 1201.79,-30.26"/>
<polygon fill="black" stroke="black" points="1202.23,-33.74 1211.8,-29.2 1201.49,-26.78 1202.23,-33.74"/>
</g>
<!-- [root] aws_ecs_service.worker (expand) -->
<g id="node4" class="node">
<title>[root] aws_ecs_service.worker (expand)</title>
<polygon fill="none" stroke="black" points="656.17,-396 507.17,-396 507.17,-360 656.17,-360 656.17,-396"/>
<text text-anchor="middle" x="581.67" y="-374.3" font-family="Times,serif" font-size="14.00">aws_ecs_service.worker</text>
</g>
<!-- [root] aws_ecs_service.worker (expand)&#45;&gt;[root] aws_ecs_cluster.ecs_cluster (expand) -->
<g id="edge5" class="edge">
<title>[root] aws_ecs_service.worker (expand)&#45;&gt;[root] aws_ecs_cluster.ecs_cluster (expand)</title>
<path fill="none" stroke="black" d="M585.14,-359.9C588.83,-341.95 594.9,-312.94 600.67,-288 614.77,-226.95 632.92,-155.68 642.69,-117.83"/>
<polygon fill="black" stroke="black" points="646.1,-118.64 645.21,-108.08 639.32,-116.89 646.1,-118.64"/>
</g>
<!-- [root] aws_ecs_task_definition.task_definition (expand) -->
<g id="node5" class="node">
<title>[root] aws_ecs_task_definition.task_definition (expand)</title>
<polygon fill="none" stroke="black" points="843.67,-324 609.67,-324 609.67,-288 843.67,-288 843.67,-324"/>
<text text-anchor="middle" x="726.67" y="-302.3" font-family="Times,serif" font-size="14.00">aws_ecs_task_definition.task_definition</text>
</g>
<!-- [root] aws_ecs_service.worker (expand)&#45;&gt;[root] aws_ecs_task_definition.task_definition (expand) -->
<g id="edge6" class="edge">
<title>[root] aws_ecs_service.worker (expand)&#45;&gt;[root] aws_ecs_task_definition.task_definition (expand)</title>
<path fill="none" stroke="black" d="M617.14,-359.88C636.78,-350.39 661.39,-338.51 682.3,-328.42"/>
<polygon fill="black" stroke="black" points="683.83,-331.57 691.31,-324.07 680.78,-325.26 683.83,-331.57"/>
</g>
<!-- [root] aws_iam_role.ecs&#45;task&#45;execution&#45;role (expand) -->
<g id="node9" class="node">
<title>[root] aws_iam_role.ecs&#45;task&#45;execution&#45;role (expand)</title>
<polygon fill="none" stroke="black" points="1123.17,-252 900.17,-252 900.17,-216 1123.17,-216 1123.17,-252"/>
<text text-anchor="middle" x="1011.67" y="-230.3" font-family="Times,serif" font-size="14.00">aws_iam_role.ecs&#45;task&#45;execution&#45;role</text>
</g>
<!-- [root] aws_ecs_task_definition.task_definition (expand)&#45;&gt;[root] aws_iam_role.ecs&#45;task&#45;execution&#45;role (expand) -->
<g id="edge7" class="edge">
<title>[root] aws_ecs_task_definition.task_definition (expand)&#45;&gt;[root] aws_iam_role.ecs&#45;task&#45;execution&#45;role (expand)</title>
<path fill="none" stroke="black" d="M796.02,-287.97C837.14,-277.87 889.41,-265.03 932.19,-254.52"/>
<polygon fill="black" stroke="black" points="933.12,-257.9 942,-252.11 931.45,-251.1 933.12,-257.9"/>
</g>
<!-- [root] data.template_file.task_definition_json (expand) -->
<g id="node23" class="node">
<title>[root] data.template_file.task_definition_json (expand)</title>
<polygon fill="none" stroke="black" points="553.17,-252 324.17,-252 324.17,-216 553.17,-216 553.17,-252"/>
<text text-anchor="middle" x="438.67" y="-230.3" font-family="Times,serif" font-size="14.00">data.template_file.task_definition_json</text>
</g>
<!-- [root] aws_ecs_task_definition.task_definition (expand)&#45;&gt;[root] data.template_file.task_definition_json (expand) -->
<g id="edge8" class="edge">
<title>[root] aws_ecs_task_definition.task_definition (expand)&#45;&gt;[root] data.template_file.task_definition_json (expand)</title>
<path fill="none" stroke="black" d="M656.58,-287.97C615.03,-277.87 562.21,-265.03 518.98,-254.52"/>
<polygon fill="black" stroke="black" points="519.61,-251.07 509.07,-252.11 517.96,-257.87 519.61,-251.07"/>
</g>
<!-- [root] aws_iam_instance_profile.ecs&#45;instance&#45;profile (expand) -->
<g id="node6" class="node">
<title>[root] aws_iam_instance_profile.ecs&#45;instance&#45;profile (expand)</title>
<polygon fill="none" stroke="black" points="2262.17,-252 1993.17,-252 1993.17,-216 2262.17,-216 2262.17,-252"/>
<text text-anchor="middle" x="2127.67" y="-230.3" font-family="Times,serif" font-size="14.00">aws_iam_instance_profile.ecs&#45;instance&#45;profile</text>
</g>
<!-- [root] aws_iam_role.ecs&#45;instance&#45;role (expand) -->
<g id="node7" class="node">
<title>[root] aws_iam_role.ecs&#45;instance&#45;role (expand)</title>
<polygon fill="none" stroke="black" points="1958.67,-180 1770.67,-180 1770.67,-144 1958.67,-144 1958.67,-180"/>
<text text-anchor="middle" x="1864.67" y="-158.3" font-family="Times,serif" font-size="14.00">aws_iam_role.ecs&#45;instance&#45;role</text>
</g>
<!-- [root] aws_iam_instance_profile.ecs&#45;instance&#45;profile (expand)&#45;&gt;[root] aws_iam_role.ecs&#45;instance&#45;role (expand) -->
<g id="edge9" class="edge">
<title>[root] aws_iam_instance_profile.ecs&#45;instance&#45;profile (expand)&#45;&gt;[root] aws_iam_role.ecs&#45;instance&#45;role (expand)</title>
<path fill="none" stroke="black" d="M2063.67,-215.97C2025.96,-205.93 1978.1,-193.19 1938.76,-182.72"/>
<polygon fill="black" stroke="black" points="1939.52,-179.3 1928.95,-180.11 1937.72,-186.07 1939.52,-179.3"/>
</g>
<!-- [root] provisioner.local&#45;exec -->
<g id="node27" class="node">
<title>[root] provisioner.local&#45;exec</title>
<ellipse fill="none" stroke="black" cx="2127.67" cy="-162" rx="111.28" ry="18"/>
<text text-anchor="middle" x="2127.67" y="-158.3" font-family="Times,serif" font-size="14.00">[root] provisioner.local&#45;exec</text>
</g>
<!-- [root] aws_iam_instance_profile.ecs&#45;instance&#45;profile (expand)&#45;&gt;[root] provisioner.local&#45;exec -->
<g id="edge10" class="edge">
<title>[root] aws_iam_instance_profile.ecs&#45;instance&#45;profile (expand)&#45;&gt;[root] provisioner.local&#45;exec</title>
<path fill="none" stroke="black" d="M2127.67,-215.7C2127.67,-207.98 2127.67,-198.71 2127.67,-190.11"/>
<polygon fill="black" stroke="black" points="2131.17,-190.1 2127.67,-180.1 2124.17,-190.1 2131.17,-190.1"/>
</g>
<!-- [root] data.aws_iam_policy_document.ecs&#45;instance&#45;policy (expand) -->
<g id="node20" class="node">
<title>[root] data.aws_iam_policy_document.ecs&#45;instance&#45;policy (expand)</title>
<polygon fill="none" stroke="black" points="1948.17,-108 1647.17,-108 1647.17,-72 1948.17,-72 1948.17,-108"/>
<text text-anchor="middle" x="1797.67" y="-86.3" font-family="Times,serif" font-size="14.00">data.aws_iam_policy_document.ecs&#45;instance&#45;policy</text>
</g>
<!-- [root] aws_iam_role.ecs&#45;instance&#45;role (expand)&#45;&gt;[root] data.aws_iam_policy_document.ecs&#45;instance&#45;policy (expand) -->
<g id="edge11" class="edge">
<title>[root] aws_iam_role.ecs&#45;instance&#45;role (expand)&#45;&gt;[root] data.aws_iam_policy_document.ecs&#45;instance&#45;policy (expand)</title>
<path fill="none" stroke="black" d="M1848.1,-143.7C1839.99,-135.22 1830.08,-124.86 1821.2,-115.58"/>
<polygon fill="black" stroke="black" points="1823.48,-112.91 1814.04,-108.1 1818.42,-117.75 1823.48,-112.91"/>
</g>
<!-- [root] aws_iam_role.ecs&#45;service&#45;role (expand) -->
<g id="node8" class="node">
<title>[root] aws_iam_role.ecs&#45;service&#45;role (expand)</title>
<polygon fill="none" stroke="black" points="1513.67,-324 1331.67,-324 1331.67,-288 1513.67,-288 1513.67,-324"/>
<text text-anchor="middle" x="1422.67" y="-302.3" font-family="Times,serif" font-size="14.00">aws_iam_role.ecs&#45;service&#45;role</text>
</g>
<!-- [root] data.aws_iam_policy_document.ecs&#45;service&#45;policy (expand) -->
<g id="node21" class="node">
<title>[root] data.aws_iam_policy_document.ecs&#45;service&#45;policy (expand)</title>
<polygon fill="none" stroke="black" points="1560.17,-108 1265.17,-108 1265.17,-72 1560.17,-72 1560.17,-108"/>
<text text-anchor="middle" x="1412.67" y="-86.3" font-family="Times,serif" font-size="14.00">data.aws_iam_policy_document.ecs&#45;service&#45;policy</text>
</g>
<!-- [root] aws_iam_role.ecs&#45;service&#45;role (expand)&#45;&gt;[root] data.aws_iam_policy_document.ecs&#45;service&#45;policy (expand) -->
<g id="edge12" class="edge">
<title>[root] aws_iam_role.ecs&#45;service&#45;role (expand)&#45;&gt;[root] data.aws_iam_policy_document.ecs&#45;service&#45;policy (expand)</title>
<path fill="none" stroke="black" d="M1421.86,-287.85C1420.14,-250.83 1416.04,-163.18 1413.95,-118.39"/>
<polygon fill="black" stroke="black" points="1417.43,-118.06 1413.47,-108.23 1410.44,-118.38 1417.43,-118.06"/>
</g>
<!-- [root] data.aws_iam_policy_document.ecs&#45;task&#45;policy (expand) -->
<g id="node22" class="node">
<title>[root] data.aws_iam_policy_document.ecs&#45;task&#45;policy (expand)</title>
<polygon fill="none" stroke="black" points="1157.67,-108 879.67,-108 879.67,-72 1157.67,-72 1157.67,-108"/>
<text text-anchor="middle" x="1018.67" y="-86.3" font-family="Times,serif" font-size="14.00">data.aws_iam_policy_document.ecs&#45;task&#45;policy</text>
</g>
<!-- [root] aws_iam_role.ecs&#45;task&#45;execution&#45;role (expand)&#45;&gt;[root] data.aws_iam_policy_document.ecs&#45;task&#45;policy (expand) -->
<g id="edge13" class="edge">
<title>[root] aws_iam_role.ecs&#45;task&#45;execution&#45;role (expand)&#45;&gt;[root] data.aws_iam_policy_document.ecs&#45;task&#45;policy (expand)</title>
<path fill="none" stroke="black" d="M1012.51,-215.87C1013.7,-191.67 1015.9,-147.21 1017.32,-118.39"/>
<polygon fill="black" stroke="black" points="1020.82,-118.35 1017.82,-108.19 1013.83,-118 1020.82,-118.35"/>
</g>
<!-- [root] aws_iam_role_policy_attachment.ecs&#45;instance&#45;role&#45;attachment (expand) -->
<g id="node10" class="node">
<title>[root] aws_iam_role_policy_attachment.ecs&#45;instance&#45;role&#45;attachment (expand)</title>
<polygon fill="none" stroke="black" points="2044.67,-396 1684.67,-396 1684.67,-360 2044.67,-360 2044.67,-396"/>
<text text-anchor="middle" x="1864.67" y="-374.3" font-family="Times,serif" font-size="14.00">aws_iam_role_policy_attachment.ecs&#45;instance&#45;role&#45;attachment</text>
</g>
<!-- [root] aws_iam_role_policy_attachment.ecs&#45;instance&#45;role&#45;attachment (expand)&#45;&gt;[root] aws_iam_role.ecs&#45;instance&#45;role (expand) -->
<g id="edge14" class="edge">
<title>[root] aws_iam_role_policy_attachment.ecs&#45;instance&#45;role&#45;attachment (expand)&#45;&gt;[root] aws_iam_role.ecs&#45;instance&#45;role (expand)</title>
<path fill="none" stroke="black" d="M1864.67,-359.85C1864.67,-322.83 1864.67,-235.18 1864.67,-190.39"/>
<polygon fill="black" stroke="black" points="1868.17,-190.23 1864.67,-180.23 1861.17,-190.23 1868.17,-190.23"/>
</g>
<!-- [root] aws_iam_role_policy_attachment.ecs&#45;service&#45;role&#45;attachment (expand) -->
<g id="node11" class="node">
<title>[root] aws_iam_role_policy_attachment.ecs&#45;service&#45;role&#45;attachment (expand)</title>
<polygon fill="none" stroke="black" points="1666.67,-396 1312.67,-396 1312.67,-360 1666.67,-360 1666.67,-396"/>
<text text-anchor="middle" x="1489.67" y="-374.3" font-family="Times,serif" font-size="14.00">aws_iam_role_policy_attachment.ecs&#45;service&#45;role&#45;attachment</text>
</g>
<!-- [root] aws_iam_role_policy_attachment.ecs&#45;service&#45;role&#45;attachment (expand)&#45;&gt;[root] aws_iam_role.ecs&#45;service&#45;role (expand) -->
<g id="edge15" class="edge">
<title>[root] aws_iam_role_policy_attachment.ecs&#45;service&#45;role&#45;attachment (expand)&#45;&gt;[root] aws_iam_role.ecs&#45;service&#45;role (expand)</title>
<path fill="none" stroke="black" d="M1473.1,-359.7C1464.99,-351.22 1455.08,-340.86 1446.2,-331.58"/>
<polygon fill="black" stroke="black" points="1448.48,-328.91 1439.04,-324.1 1443.42,-333.75 1448.48,-328.91"/>
</g>
<!-- [root] aws_iam_role_policy_attachment.role&#45;policy&#45;attachment (expand) -->
<g id="node12" class="node">
<title>[root] aws_iam_role_policy_attachment.role&#45;policy&#45;attachment (expand)</title>
<polygon fill="none" stroke="black" points="1002.67,-396 674.67,-396 674.67,-360 1002.67,-360 1002.67,-396"/>
<text text-anchor="middle" x="838.67" y="-374.3" font-family="Times,serif" font-size="14.00">aws_iam_role_policy_attachment.role&#45;policy&#45;attachment</text>
</g>
<!-- [root] aws_iam_role_policy_attachment.role&#45;policy&#45;attachment (expand)&#45;&gt;[root] aws_iam_role.ecs&#45;task&#45;execution&#45;role (expand) -->
<g id="edge16" class="edge">
<title>[root] aws_iam_role_policy_attachment.role&#45;policy&#45;attachment (expand)&#45;&gt;[root] aws_iam_role.ecs&#45;task&#45;execution&#45;role (expand)</title>
<path fill="none" stroke="black" d="M936.88,-359.86C957.78,-352.03 977.95,-340.62 992.67,-324 1007.52,-307.23 1011.75,-281.75 1012.56,-262.34"/>
<polygon fill="black" stroke="black" points="1016.06,-262.33 1012.71,-252.28 1009.06,-262.22 1016.06,-262.33"/>
</g>
<!-- [root] var.iam_policy_arn -->
<g id="node26" class="node">
<title>[root] var.iam_policy_arn</title>
<polygon fill="none" stroke="black" points="977.67,-324 861.67,-324 861.67,-288 983.67,-288 983.67,-318 977.67,-324"/>
<polyline fill="none" stroke="black" points="977.67,-324 977.67,-318 "/>
<polyline fill="none" stroke="black" points="983.67,-318 977.67,-318 "/>
<text text-anchor="middle" x="922.67" y="-302.3" font-family="Times,serif" font-size="14.00">var.iam_policy_arn</text>
</g>
<!-- [root] aws_iam_role_policy_attachment.role&#45;policy&#45;attachment (expand)&#45;&gt;[root] var.iam_policy_arn -->
<g id="edge17" class="edge">
<title>[root] aws_iam_role_policy_attachment.role&#45;policy&#45;attachment (expand)&#45;&gt;[root] var.iam_policy_arn</title>
<path fill="none" stroke="black" d="M859.43,-359.7C869.91,-350.97 882.78,-340.24 894.17,-330.75"/>
<polygon fill="black" stroke="black" points="896.7,-333.19 902.14,-324.1 892.22,-327.82 896.7,-333.19"/>
</g>
<!-- [root] aws_internet_gateway.internet_gateway (expand) -->
<g id="node13" class="node">
<title>[root] aws_internet_gateway.internet_gateway (expand)</title>
<polygon fill="none" stroke="black" points="2843.17,-252 2610.17,-252 2610.17,-216 2843.17,-216 2843.17,-252"/>
<text text-anchor="middle" x="2726.67" y="-230.3" font-family="Times,serif" font-size="14.00">aws_internet_gateway.internet_gateway</text>
</g>
<!-- [root] aws_vpc.vpc (expand) -->
<g id="node19" class="node">
<title>[root] aws_vpc.vpc (expand)</title>
<polygon fill="none" stroke="black" points="2461.17,-180 2374.17,-180 2374.17,-144 2461.17,-144 2461.17,-180"/>
<text text-anchor="middle" x="2417.67" y="-158.3" font-family="Times,serif" font-size="14.00">aws_vpc.vpc</text>
</g>
<!-- [root] aws_internet_gateway.internet_gateway (expand)&#45;&gt;[root] aws_vpc.vpc (expand) -->
<g id="edge18" class="edge">
<title>[root] aws_internet_gateway.internet_gateway (expand)&#45;&gt;[root] aws_vpc.vpc (expand)</title>
<path fill="none" stroke="black" d="M2651.47,-215.97C2595.82,-203.36 2521.33,-186.48 2471.53,-175.2"/>
<polygon fill="black" stroke="black" points="2472.13,-171.75 2461.6,-172.95 2470.58,-178.58 2472.13,-171.75"/>
</g>
<!-- [root] aws_launch_configuration.ecs_launch_config (expand)&#45;&gt;[root] aws_iam_instance_profile.ecs&#45;instance&#45;profile (expand) -->
<g id="edge19" class="edge">
<title>[root] aws_launch_configuration.ecs_launch_config (expand)&#45;&gt;[root] aws_iam_instance_profile.ecs&#45;instance&#45;profile (expand)</title>
<path fill="none" stroke="black" d="M2184.88,-287.7C2175.49,-279.05 2163.98,-268.45 2153.75,-259.03"/>
<polygon fill="black" stroke="black" points="2155.96,-256.3 2146.24,-252.1 2151.22,-261.45 2155.96,-256.3"/>
</g>
<!-- [root] aws_security_group.ecs_sg (expand) -->
<g id="node17" class="node">
<title>[root] aws_security_group.ecs_sg (expand)</title>
<polygon fill="none" stroke="black" points="2445.17,-252 2280.17,-252 2280.17,-216 2445.17,-216 2445.17,-252"/>
<text text-anchor="middle" x="2362.67" y="-230.3" font-family="Times,serif" font-size="14.00">aws_security_group.ecs_sg</text>
</g>
<!-- [root] aws_launch_configuration.ecs_launch_config (expand)&#45;&gt;[root] aws_security_group.ecs_sg (expand) -->
<g id="edge20" class="edge">
<title>[root] aws_launch_configuration.ecs_launch_config (expand)&#45;&gt;[root] aws_security_group.ecs_sg (expand)</title>
<path fill="none" stroke="black" d="M2242.56,-287.88C2264.3,-278.31 2291.57,-266.3 2314.63,-256.15"/>
<polygon fill="black" stroke="black" points="2316.15,-259.3 2323.9,-252.07 2313.33,-252.89 2316.15,-259.3"/>
</g>
<!-- [root] aws_route_table.public (expand) -->
<g id="node15" class="node">
<title>[root] aws_route_table.public (expand)</title>
<polygon fill="none" stroke="black" points="2866.17,-324 2723.17,-324 2723.17,-288 2866.17,-288 2866.17,-324"/>
<text text-anchor="middle" x="2794.67" y="-302.3" font-family="Times,serif" font-size="14.00">aws_route_table.public</text>
</g>
<!-- [root] aws_route_table.public (expand)&#45;&gt;[root] aws_internet_gateway.internet_gateway (expand) -->
<g id="edge21" class="edge">
<title>[root] aws_route_table.public (expand)&#45;&gt;[root] aws_internet_gateway.internet_gateway (expand)</title>
<path fill="none" stroke="black" d="M2777.86,-287.7C2769.54,-279.14 2759.36,-268.66 2750.28,-259.3"/>
<polygon fill="black" stroke="black" points="2752.76,-256.84 2743.28,-252.1 2747.74,-261.72 2752.76,-256.84"/>
</g>
<!-- [root] aws_route_table_association.route_table_association (expand) -->
<g id="node16" class="node">
<title>[root] aws_route_table_association.route_table_association (expand)</title>
<polygon fill="none" stroke="black" points="2666.17,-396 2363.17,-396 2363.17,-360 2666.17,-360 2666.17,-396"/>
<text text-anchor="middle" x="2514.67" y="-374.3" font-family="Times,serif" font-size="14.00">aws_route_table_association.route_table_association</text>
</g>
<!-- [root] aws_route_table_association.route_table_association (expand)&#45;&gt;[root] aws_route_table.public (expand) -->
<g id="edge22" class="edge">
<title>[root] aws_route_table_association.route_table_association (expand)&#45;&gt;[root] aws_route_table.public (expand)</title>
<path fill="none" stroke="black" d="M2582.8,-359.97C2623.12,-349.89 2674.34,-337.08 2716.32,-326.59"/>
<polygon fill="black" stroke="black" points="2717.37,-329.93 2726.22,-324.11 2715.67,-323.14 2717.37,-329.93"/>
</g>
<!-- [root] aws_route_table_association.route_table_association (expand)&#45;&gt;[root] aws_subnet.pub_subnet (expand) -->
<g id="edge23" class="edge">
<title>[root] aws_route_table_association.route_table_association (expand)&#45;&gt;[root] aws_subnet.pub_subnet (expand)</title>
<path fill="none" stroke="black" d="M2504.53,-359.7C2499.81,-351.64 2494.1,-341.89 2488.88,-332.98"/>
<polygon fill="black" stroke="black" points="2491.76,-330.96 2483.68,-324.1 2485.72,-334.5 2491.76,-330.96"/>
</g>
<!-- [root] aws_security_group.ecs_sg (expand)&#45;&gt;[root] aws_vpc.vpc (expand) -->
<g id="edge24" class="edge">
<title>[root] aws_security_group.ecs_sg (expand)&#45;&gt;[root] aws_vpc.vpc (expand)</title>
<path fill="none" stroke="black" d="M2376.26,-215.7C2382.79,-207.39 2390.73,-197.28 2397.91,-188.14"/>
<polygon fill="black" stroke="black" points="2400.8,-190.13 2404.23,-180.1 2395.3,-185.81 2400.8,-190.13"/>
</g>
<!-- [root] aws_subnet.pub_subnet (expand)&#45;&gt;[root] aws_vpc.vpc (expand) -->
<g id="edge25" class="edge">
<title>[root] aws_subnet.pub_subnet (expand)&#45;&gt;[root] aws_vpc.vpc (expand)</title>
<path fill="none" stroke="black" d="M2471.73,-287.67C2469.23,-269.29 2463.93,-239.69 2453.67,-216 2449.53,-206.46 2443.61,-196.81 2437.77,-188.41"/>
<polygon fill="black" stroke="black" points="2440.49,-186.2 2431.78,-180.17 2434.82,-190.32 2440.49,-186.2"/>
</g>
<!-- [root] aws_vpc.vpc (expand)&#45;&gt;[root] provider[&quot;registry.terraform.io/hashicorp/aws&quot;] -->
<g id="edge26" class="edge">
<title>[root] aws_vpc.vpc (expand)&#45;&gt;[root] provider[&quot;registry.terraform.io/hashicorp/aws&quot;]</title>
<path fill="none" stroke="black" d="M2374.07,-150.93C2292.56,-132.47 2111.32,-93.18 1956.67,-72 1786.65,-48.72 1590.07,-34.41 1458.21,-26.62"/>
<polygon fill="black" stroke="black" points="1458.23,-23.12 1448.04,-26.03 1457.82,-30.11 1458.23,-23.12"/>
</g>
<!-- [root] data.aws_iam_policy_document.ecs&#45;instance&#45;policy (expand)&#45;&gt;[root] provider[&quot;registry.terraform.io/hashicorp/aws&quot;] -->
<g id="edge27" class="edge">
<title>[root] data.aws_iam_policy_document.ecs&#45;instance&#45;policy (expand)&#45;&gt;[root] provider[&quot;registry.terraform.io/hashicorp/aws&quot;]</title>
<path fill="none" stroke="black" d="M1678.43,-71.97C1591.63,-59.57 1475.94,-43.04 1397.02,-31.77"/>
<polygon fill="black" stroke="black" points="1397.5,-28.3 1387.1,-30.35 1396.51,-35.23 1397.5,-28.3"/>
</g>
<!-- [root] data.aws_iam_policy_document.ecs&#45;service&#45;policy (expand)&#45;&gt;[root] provider[&quot;registry.terraform.io/hashicorp/aws&quot;] -->
<g id="edge28" class="edge">
<title>[root] data.aws_iam_policy_document.ecs&#45;service&#45;policy (expand)&#45;&gt;[root] provider[&quot;registry.terraform.io/hashicorp/aws&quot;]</title>
<path fill="none" stroke="black" d="M1386.98,-71.88C1372.67,-62.33 1354.72,-50.37 1339.52,-40.24"/>
<polygon fill="black" stroke="black" points="1341.2,-37.15 1330.94,-34.51 1337.32,-42.97 1341.2,-37.15"/>
</g>
<!-- [root] data.aws_iam_policy_document.ecs&#45;task&#45;policy (expand)&#45;&gt;[root] provider[&quot;registry.terraform.io/hashicorp/aws&quot;] -->
<g id="edge29" class="edge">
<title>[root] data.aws_iam_policy_document.ecs&#45;task&#45;policy (expand)&#45;&gt;[root] provider[&quot;registry.terraform.io/hashicorp/aws&quot;]</title>
<path fill="none" stroke="black" d="M1088.99,-71.97C1136.16,-60.54 1197.79,-45.61 1243.59,-34.52"/>
<polygon fill="black" stroke="black" points="1244.51,-37.9 1253.41,-32.14 1242.87,-31.09 1244.51,-37.9"/>
</g>
<!-- [root] provider[&quot;registry.terraform.io/hashicorp/template&quot;] -->
<g id="node25" class="node">
<title>[root] provider[&quot;registry.terraform.io/hashicorp/template&quot;]</title>
<polygon fill="none" stroke="black" points="276.67,-180 -0.17,-162 276.67,-144 553.5,-162 276.67,-180"/>
<text text-anchor="middle" x="276.67" y="-158.3" font-family="Times,serif" font-size="14.00">provider[&quot;registry.terraform.io/hashicorp/template&quot;]</text>
</g>
<!-- [root] data.template_file.task_definition_json (expand)&#45;&gt;[root] provider[&quot;registry.terraform.io/hashicorp/template&quot;] -->
<g id="edge30" class="edge">
<title>[root] data.template_file.task_definition_json (expand)&#45;&gt;[root] provider[&quot;registry.terraform.io/hashicorp/template&quot;]</title>
<path fill="none" stroke="black" d="M399.04,-215.88C375.22,-205.59 344.88,-192.48 320.37,-181.89"/>
<polygon fill="black" stroke="black" points="321.52,-178.57 310.95,-177.81 318.74,-184.99 321.52,-178.57"/>
</g>
<!-- [root] meta.count&#45;boundary (EachMode fixup) -->
<g id="node28" class="node">
<title>[root] meta.count&#45;boundary (EachMode fixup)</title>
<ellipse fill="none" stroke="black" cx="1721.67" cy="-450" rx="176.57" ry="18"/>
<text text-anchor="middle" x="1721.67" y="-446.3" font-family="Times,serif" font-size="14.00">[root] meta.count&#45;boundary (EachMode fixup)</text>
</g>
<!-- [root] meta.count&#45;boundary (EachMode fixup)&#45;&gt;[root] aws_autoscaling_group.failure_analysis_ecs_asg (expand) -->
<g id="edge31" class="edge">
<title>[root] meta.count&#45;boundary (EachMode fixup)&#45;&gt;[root] aws_autoscaling_group.failure_analysis_ecs_asg (expand)</title>
<path fill="none" stroke="black" d="M1818.63,-434.92C1892.71,-424.16 1995.47,-409.24 2076.2,-397.51"/>
<polygon fill="black" stroke="black" points="2077.04,-400.93 2086.43,-396.03 2076.03,-394 2077.04,-400.93"/>
</g>
<!-- [root] meta.count&#45;boundary (EachMode fixup)&#45;&gt;[root] aws_cloudwatch_log_group.jenkins_log_group (expand) -->
<g id="edge32" class="edge">
<title>[root] meta.count&#45;boundary (EachMode fixup)&#45;&gt;[root] aws_cloudwatch_log_group.jenkins_log_group (expand)</title>
<path fill="none" stroke="black" d="M1614.25,-435.67C1526.59,-424.79 1401.81,-409.3 1304.84,-397.27"/>
<polygon fill="black" stroke="black" points="1305.01,-393.76 1294.66,-396 1304.15,-400.71 1305.01,-393.76"/>
</g>
<!-- [root] meta.count&#45;boundary (EachMode fixup)&#45;&gt;[root] aws_ecs_service.worker (expand) -->
<g id="edge33" class="edge">
<title>[root] meta.count&#45;boundary (EachMode fixup)&#45;&gt;[root] aws_ecs_service.worker (expand)</title>
<path fill="none" stroke="black" d="M1599.42,-436.95C1578.18,-435.11 1556.29,-433.37 1535.67,-432 1152.82,-406.6 1051.58,-441.91 666.25,-395.93"/>
<polygon fill="black" stroke="black" points="666.57,-392.45 656.22,-394.73 665.73,-399.4 666.57,-392.45"/>
</g>
<!-- [root] meta.count&#45;boundary (EachMode fixup)&#45;&gt;[root] aws_iam_role_policy_attachment.ecs&#45;instance&#45;role&#45;attachment (expand) -->
<g id="edge34" class="edge">
<title>[root] meta.count&#45;boundary (EachMode fixup)&#45;&gt;[root] aws_iam_role_policy_attachment.ecs&#45;instance&#45;role&#45;attachment (expand)</title>
<path fill="none" stroke="black" d="M1755.92,-432.23C1775.26,-422.76 1799.66,-410.82 1820.44,-400.65"/>
<polygon fill="black" stroke="black" points="1822.26,-403.66 1829.7,-396.12 1819.18,-397.37 1822.26,-403.66"/>
</g>
<!-- [root] meta.count&#45;boundary (EachMode fixup)&#45;&gt;[root] aws_iam_role_policy_attachment.ecs&#45;service&#45;role&#45;attachment (expand) -->
<g id="edge35" class="edge">
<title>[root] meta.count&#45;boundary (EachMode fixup)&#45;&gt;[root] aws_iam_role_policy_attachment.ecs&#45;service&#45;role&#45;attachment (expand)</title>
<path fill="none" stroke="black" d="M1667.86,-432.76C1634.46,-422.69 1591.28,-409.66 1555.8,-398.95"/>
<polygon fill="black" stroke="black" points="1556.6,-395.54 1546.01,-396 1554.57,-402.24 1556.6,-395.54"/>
</g>
<!-- [root] meta.count&#45;boundary (EachMode fixup)&#45;&gt;[root] aws_iam_role_policy_attachment.role&#45;policy&#45;attachment (expand) -->
<g id="edge36" class="edge">
<title>[root] meta.count&#45;boundary (EachMode fixup)&#45;&gt;[root] aws_iam_role_policy_attachment.role&#45;policy&#45;attachment (expand)</title>
<path fill="none" stroke="black" d="M1596.89,-437.2C1576.44,-435.38 1555.46,-433.58 1535.67,-432 1306.27,-413.64 1245.99,-415.36 1013.16,-396.11"/>
<polygon fill="black" stroke="black" points="1013.28,-392.61 1003.02,-395.27 1012.7,-399.58 1013.28,-392.61"/>
</g>
<!-- [root] meta.count&#45;boundary (EachMode fixup)&#45;&gt;[root] aws_route_table_association.route_table_association (expand) -->
<g id="edge37" class="edge">
<title>[root] meta.count&#45;boundary (EachMode fixup)&#45;&gt;[root] aws_route_table_association.route_table_association (expand)</title>
<path fill="none" stroke="black" d="M1857.66,-438.45C1983.33,-428.5 2175.51,-412.78 2352.94,-396.06"/>
<polygon fill="black" stroke="black" points="2353.36,-399.53 2362.99,-395.11 2352.71,-392.56 2353.36,-399.53"/>
</g>
<!-- [root] provider[&quot;registry.terraform.io/hashicorp/aws&quot;] (close) -->
<g id="node29" class="node">
<title>[root] provider[&quot;registry.terraform.io/hashicorp/aws&quot;] (close)</title>
<ellipse fill="none" stroke="black" cx="1299.67" cy="-450" rx="227.46" ry="18"/>
<text text-anchor="middle" x="1299.67" y="-446.3" font-family="Times,serif" font-size="14.00">[root] provider[&quot;registry.terraform.io/hashicorp/aws&quot;] (close)</text>
</g>
<!-- [root] provider[&quot;registry.terraform.io/hashicorp/aws&quot;] (close)&#45;&gt;[root] aws_autoscaling_group.failure_analysis_ecs_asg (expand) -->
<g id="edge38" class="edge">
<title>[root] provider[&quot;registry.terraform.io/hashicorp/aws&quot;] (close)&#45;&gt;[root] aws_autoscaling_group.failure_analysis_ecs_asg (expand)</title>
<path fill="none" stroke="black" d="M1461.21,-437.31C1486.14,-435.52 1511.59,-433.7 1535.67,-432 1762.61,-415.94 1822.17,-416.97 2052.34,-396.1"/>
<polygon fill="black" stroke="black" points="2052.72,-399.58 2062.36,-395.19 2052.09,-392.61 2052.72,-399.58"/>
</g>
<!-- [root] provider[&quot;registry.terraform.io/hashicorp/aws&quot;] (close)&#45;&gt;[root] aws_cloudwatch_log_group.jenkins_log_group (expand) -->
<g id="edge39" class="edge">
<title>[root] provider[&quot;registry.terraform.io/hashicorp/aws&quot;] (close)&#45;&gt;[root] aws_cloudwatch_log_group.jenkins_log_group (expand)</title>
<path fill="none" stroke="black" d="M1265.29,-432.05C1246.07,-422.58 1221.93,-410.68 1201.37,-400.55"/>
<polygon fill="black" stroke="black" points="1202.73,-397.31 1192.22,-396.03 1199.64,-403.59 1202.73,-397.31"/>
</g>
<!-- [root] provider[&quot;registry.terraform.io/hashicorp/aws&quot;] (close)&#45;&gt;[root] aws_ecs_service.worker (expand) -->
<g id="edge40" class="edge">
<title>[root] provider[&quot;registry.terraform.io/hashicorp/aws&quot;] (close)&#45;&gt;[root] aws_ecs_service.worker (expand)</title>
<path fill="none" stroke="black" d="M1116.27,-439.33C992.05,-431.42 824.1,-418.11 666.6,-396.03"/>
<polygon fill="black" stroke="black" points="666.64,-392.5 656.24,-394.56 665.65,-399.43 666.64,-392.5"/>
</g>
<!-- [root] provider[&quot;registry.terraform.io/hashicorp/aws&quot;] (close)&#45;&gt;[root] aws_iam_role_policy_attachment.ecs&#45;instance&#45;role&#45;attachment (expand) -->
<g id="edge41" class="edge">
<title>[root] provider[&quot;registry.terraform.io/hashicorp/aws&quot;] (close)&#45;&gt;[root] aws_iam_role_policy_attachment.ecs&#45;instance&#45;role&#45;attachment (expand)</title>
<path fill="none" stroke="black" d="M1416.39,-434.54C1503.61,-423.73 1623.45,-408.88 1717.28,-397.26"/>
<polygon fill="black" stroke="black" points="1717.94,-400.71 1727.43,-396 1717.08,-393.76 1717.94,-400.71"/>
</g>
<!-- [root] provider[&quot;registry.terraform.io/hashicorp/aws&quot;] (close)&#45;&gt;[root] aws_iam_role_policy_attachment.ecs&#45;service&#45;role&#45;attachment (expand) -->
<g id="edge42" class="edge">
<title>[root] provider[&quot;registry.terraform.io/hashicorp/aws&quot;] (close)&#45;&gt;[root] aws_iam_role_policy_attachment.ecs&#45;service&#45;role&#45;attachment (expand)</title>
<path fill="none" stroke="black" d="M1345.18,-432.23C1371.69,-422.46 1405.34,-410.07 1433.5,-399.69"/>
<polygon fill="black" stroke="black" points="1435.03,-402.86 1443.21,-396.12 1432.61,-396.29 1435.03,-402.86"/>
</g>
<!-- [root] provider[&quot;registry.terraform.io/hashicorp/aws&quot;] (close)&#45;&gt;[root] aws_iam_role_policy_attachment.role&#45;policy&#45;attachment (expand) -->
<g id="edge43" class="edge">
<title>[root] provider[&quot;registry.terraform.io/hashicorp/aws&quot;] (close)&#45;&gt;[root] aws_iam_role_policy_attachment.role&#45;policy&#45;attachment (expand)</title>
<path fill="none" stroke="black" d="M1199.64,-433.81C1129.44,-423.15 1035.16,-408.84 960.56,-397.51"/>
<polygon fill="black" stroke="black" points="961.05,-394.04 950.63,-396 960,-400.96 961.05,-394.04"/>
</g>
<!-- [root] provider[&quot;registry.terraform.io/hashicorp/aws&quot;] (close)&#45;&gt;[root] aws_route_table_association.route_table_association (expand) -->
<g id="edge44" class="edge">
<title>[root] provider[&quot;registry.terraform.io/hashicorp/aws&quot;] (close)&#45;&gt;[root] aws_route_table_association.route_table_association (expand)</title>
<path fill="none" stroke="black" d="M1457.67,-437.01C1483.72,-435.2 1510.45,-433.46 1535.67,-432 1895.68,-411.12 1989.09,-422.9 2352.99,-396.02"/>
<polygon fill="black" stroke="black" points="2353.29,-399.51 2363,-395.28 2352.77,-392.53 2353.29,-399.51"/>
</g>
<!-- [root] provider[&quot;registry.terraform.io/hashicorp/template&quot;] (close) -->
<g id="node30" class="node">
<title>[root] provider[&quot;registry.terraform.io/hashicorp/template&quot;] (close)</title>
<ellipse fill="none" stroke="black" cx="715.67" cy="-450" rx="244.26" ry="18"/>
<text text-anchor="middle" x="715.67" y="-446.3" font-family="Times,serif" font-size="14.00">[root] provider[&quot;registry.terraform.io/hashicorp/template&quot;] (close)</text>
</g>
<!-- [root] provider[&quot;registry.terraform.io/hashicorp/template&quot;] (close)&#45;&gt;[root] data.template_file.task_definition_json (expand) -->
<g id="edge45" class="edge">
<title>[root] provider[&quot;registry.terraform.io/hashicorp/template&quot;] (close)&#45;&gt;[root] data.template_file.task_definition_json (expand)</title>
<path fill="none" stroke="black" d="M613.28,-433.59C565.52,-424.55 515.35,-411.79 497.67,-396 458.73,-361.23 445.45,-298.55 440.95,-262.51"/>
<polygon fill="black" stroke="black" points="444.39,-261.8 439.82,-252.24 437.44,-262.57 444.39,-261.8"/>
</g>
<!-- [root] provisioner.local&#45;exec (close) -->
<g id="node31" class="node">
<title>[root] provisioner.local&#45;exec (close)</title>
<ellipse fill="none" stroke="black" cx="2445.67" cy="-450" rx="137.58" ry="18"/>
<text text-anchor="middle" x="2445.67" y="-446.3" font-family="Times,serif" font-size="14.00">[root] provisioner.local&#45;exec (close)</text>
</g>
<!-- [root] provisioner.local&#45;exec (close)&#45;&gt;[root] aws_iam_instance_profile.ecs&#45;instance&#45;profile (expand) -->
<g id="edge46" class="edge">
<title>[root] provisioner.local&#45;exec (close)&#45;&gt;[root] aws_iam_instance_profile.ecs&#45;instance&#45;profile (expand)</title>
<path fill="none" stroke="black" d="M2568.98,-441.87C2637.23,-432.33 2703.05,-410.35 2674.67,-360 2644.31,-306.15 2614.07,-308.25 2555.67,-288 2548.83,-285.63 2394.05,-266.78 2272.58,-252.23"/>
<polygon fill="black" stroke="black" points="2272.76,-248.73 2262.42,-251.01 2271.93,-255.68 2272.76,-248.73"/>
</g>
<!-- [root] root -->
<g id="node32" class="node">
<title>[root] root</title>
<ellipse fill="none" stroke="black" cx="1510.67" cy="-522" rx="47.39" ry="18"/>
<text text-anchor="middle" x="1510.67" y="-518.3" font-family="Times,serif" font-size="14.00">[root] root</text>
</g>
<!-- [root] root&#45;&gt;[root] meta.count&#45;boundary (EachMode fixup) -->
<g id="edge47" class="edge">
<title>[root] root&#45;&gt;[root] meta.count&#45;boundary (EachMode fixup)</title>
<path fill="none" stroke="black" d="M1545.51,-509.44C1577.21,-498.93 1624.65,-483.18 1662.32,-470.69"/>
<polygon fill="black" stroke="black" points="1663.78,-473.89 1672.17,-467.42 1661.57,-467.25 1663.78,-473.89"/>
</g>
<!-- [root] root&#45;&gt;[root] provider[&quot;registry.terraform.io/hashicorp/aws&quot;] (close) -->
<g id="edge48" class="edge">
<title>[root] root&#45;&gt;[root] provider[&quot;registry.terraform.io/hashicorp/aws&quot;] (close)</title>
<path fill="none" stroke="black" d="M1475.82,-509.44C1444.34,-499 1397.32,-483.4 1359.78,-470.94"/>
<polygon fill="black" stroke="black" points="1360.55,-467.51 1349.96,-467.68 1358.35,-474.16 1360.55,-467.51"/>
</g>
<!-- [root] root&#45;&gt;[root] provider[&quot;registry.terraform.io/hashicorp/template&quot;] (close) -->
<g id="edge49" class="edge">
<title>[root] root&#45;&gt;[root] provider[&quot;registry.terraform.io/hashicorp/template&quot;] (close)</title>
<path fill="none" stroke="black" d="M1465.07,-516.99C1353.13,-507.13 1060.51,-481.36 875.79,-465.1"/>
<polygon fill="black" stroke="black" points="875.98,-461.6 865.71,-464.21 875.36,-468.58 875.98,-461.6"/>
</g>
<!-- [root] root&#45;&gt;[root] provisioner.local&#45;exec (close) -->
<g id="edge50" class="edge">
<title>[root] root&#45;&gt;[root] provisioner.local&#45;exec (close)</title>
<path fill="none" stroke="black" d="M1556.71,-517.55C1694.68,-507.22 2108.13,-476.27 2318.99,-460.48"/>
<polygon fill="black" stroke="black" points="2319.47,-463.96 2329.18,-459.72 2318.95,-456.98 2319.47,-463.96"/>
</g>
</g>
</svg>
